<svg xmlns="http://www.w3.org/2000/svg" viewBox="0 0 596.28 378.59"><defs><style>.cls-1{fill:#231f20;}.cls-2{fill:#d83868;}.cls-3{fill:#b11116;}.cls-4{fill:#d93b2b;}.cls-5{fill:#9e0b0f;}.cls-6{fill:#c4161c;}.cls-7{fill:none;stroke:#231f20;}</style></defs><title>Asset 1</title><g id="Layer_2" data-name="Layer 2"><g id="Layer_1-2" data-name="Layer 1"><path class="cls-1" d="M62.74,174.74A30.69,30.69,0,0,0,62,167.6a8.83,8.83,0,0,0-3.22-5.17l13-2v38.4a.54.54,0,0,0,.61.61c.25,0,.82-.51,1.72-1.54a31.62,31.62,0,0,1,3.48-3.34,27.24,27.24,0,0,1,5.13-3.34,14.64,14.64,0,0,1,6.79-1.55,15.78,15.78,0,0,1,9.29,2.65,19.51,19.51,0,0,1,6,6.77,32.77,32.77,0,0,1,3.3,9.12,47.39,47.39,0,0,1,1,9.79,43.73,43.73,0,0,1-1.52,11.7,29,29,0,0,1-4.64,9.74,22.23,22.23,0,0,1-8,6.64,25.29,25.29,0,0,1-11.58,2.47,42.25,42.25,0,0,1-5.37-.31c-1.62-.2-3.23-.43-4.81-.68s-3.25-.47-5-.67a50.11,50.11,0,0,0-5.92-.31q.21-7.76.31-15.45t.1-15.44Zm35.81,37.49a29.49,29.49,0,0,0-2.44-7.45,15.11,15.11,0,0,0-4.41-5.42,10.48,10.48,0,0,0-6.53-2.1,11.34,11.34,0,0,0-10,5.11q-3.48,5.13-3.48,14v9.49a65.37,65.37,0,0,0,.36,7,16.64,16.64,0,0,0,1.65,5.79,9.94,9.94,0,0,0,3.73,3.94,12.93,12.93,0,0,0,6.72,1.48,12.24,12.24,0,0,0,7.63-2.27,15.38,15.38,0,0,0,4.64-5.8,27.35,27.35,0,0,0,2.26-7.7,56.55,56.55,0,0,0,.61-8A42.74,42.74,0,0,0,98.55,212.23Z"/><path class="cls-1" d="M124.13,184.31q0-4.17-.3-8.53a15.73,15.73,0,0,0-2.37-7.55h16.4a15.7,15.7,0,0,0-2.38,7.54c-.2,2.9-.31,5.73-.31,8.51V203.4a11,11,0,0,0,4.57-2.09,42.68,42.68,0,0,0,4.88-4.16c1.66-1.64,3.31-3.41,4.94-5.33s3.2-3.78,4.75-5.58q5-5.88,7.91-9.68t2.93-6v-1.35a3.26,3.26,0,0,0-.12-1h15.11q-4.26,3.81-8,7a89.43,89.43,0,0,0-7.73,7.6L145.53,203.4l20.23,29.12q2.43,3.57,5.36,7.19t5.73,6.82h-12.8a3.71,3.71,0,0,1-2.68-.92,12.85,12.85,0,0,1-1.94-2.4L137.49,209.8a10.42,10.42,0,0,0-.92-1.29c-.36-.45-.66-.68-.9-.68a.4.4,0,0,0-.43.37,3.64,3.64,0,0,0-.07.74v21.49c0,2.79.11,5.64.31,8.55a15.7,15.7,0,0,0,2.38,7.55h-16.4a15.63,15.63,0,0,0,2.37-7.55q.3-4.35.3-8.52Z"/><path class="cls-1" d="M213.86,247.35a38.79,38.79,0,0,1-1-5.53c-.12-1.39-.42-2.08-.9-2.08-.25,0-.41,0-.49.12a2.72,2.72,0,0,0-.24.24c-.82,1.15-1.62,2.24-2.39,3.26a13.34,13.34,0,0,1-2.76,2.7,12.56,12.56,0,0,1-3.8,1.84,18.62,18.62,0,0,1-5.39.68,17,17,0,0,1-10.78-3.45q-4.41-3.44-4.41-10.2a10.92,10.92,0,0,1,2.26-7,23.24,23.24,0,0,1,5.62-5.1,46.43,46.43,0,0,1,7.21-3.88c2.57-1.1,4.86-2.15,6.9-3.13,1.71-.83,3.14-1.52,4.28-2.1a8.87,8.87,0,0,0,2.69-2A6.11,6.11,0,0,0,212,209a24.07,24.07,0,0,0,.37-4.7,13.75,13.75,0,0,0-2.07-7.72q-2.07-3.15-7.44-3.15c-2.92,0-5,.62-6.09,1.84a13.7,13.7,0,0,0-2.62,4.06,31.18,31.18,0,0,1-2,4.05c-.73,1.23-2.07,1.84-4,1.84a4.86,4.86,0,0,1-3.29-1,4.07,4.07,0,0,1-1.22-3.26,7.24,7.24,0,0,1,2.07-5.22,15.78,15.78,0,0,1,5.24-3.5,28.15,28.15,0,0,1,7-1.9,51.46,51.46,0,0,1,7.37-.55,42.25,42.25,0,0,1,6.21.43,16.66,16.66,0,0,1,5.11,1.54,8.33,8.33,0,0,1,4.74,8v27.09q0,5.53.3,10.77a16.52,16.52,0,0,0,3.12,9.05Zm-19.33-7.87a10.38,10.38,0,0,0,6.79,2.15,9.58,9.58,0,0,0,4.77-1.17,10.8,10.8,0,0,0,3.49-3.06,12.9,12.9,0,0,0,2.08-4.35,18.82,18.82,0,0,0,.68-5V215.66L205.73,219c-2.29,1.14-4.29,2.19-6,3.12a25.48,25.48,0,0,0-4.35,2.94,9.93,9.93,0,0,0-2.63,3.44,10.75,10.75,0,0,0-.86,4.46C191.89,235.87,192.77,238.06,194.53,239.48Z"/><path class="cls-1" d="M244.66,207.06a20.07,20.07,0,0,0,4.69,4.37,53.88,53.88,0,0,0,6.09,3.57,38.76,38.76,0,0,1,6.1,3.82,20.76,20.76,0,0,1,4.69,5,12.59,12.59,0,0,1,1.89,7.14,15.1,15.1,0,0,1-1.89,7.7,17.48,17.48,0,0,1-5,5.48,22.62,22.62,0,0,1-7,3.33,27.81,27.81,0,0,1-7.75,1.11,33.78,33.78,0,0,1-6.9-.68,40.8,40.8,0,0,1-6.65-2,4.68,4.68,0,0,1-1.52-.86,2.43,2.43,0,0,1-.55-1.85,41,41,0,0,1,.24-4.43c.16-1.49.29-3,.37-4.57,1,1.56,1.9,2.94,2.8,4.17a14.63,14.63,0,0,0,3.06,3.12,12.7,12.7,0,0,0,3.85,2,17.06,17.06,0,0,0,5.19.68c3.67,0,6.51-.86,8.5-2.58s3-4.35,3-7.88a10.53,10.53,0,0,0-1.77-6.21,18.49,18.49,0,0,0-4.44-4.43,51.66,51.66,0,0,0-5.85-3.57A34.62,34.62,0,0,1,240,215.6a18.61,18.61,0,0,1-4.45-5.17,14.75,14.75,0,0,1-1.77-7.57q0-7,4.94-10.09t13.58-3.07a35.27,35.27,0,0,1,5.54.43q2.75.44,5.54,1.05a5.73,5.73,0,0,0,.92.3.81.81,0,0,1,.67.81c0,1.15,0,2.51-.07,4.07s-.1,3-.18,4.3q-1.83-2.22-3.23-3.64a12.3,12.3,0,0,0-2.86-2.22,10.19,10.19,0,0,0-3.05-1.11,19,19,0,0,0-3.66-.31,11.55,11.55,0,0,0-6.34,1.79,6.27,6.27,0,0,0-2.8,5.72A9.86,9.86,0,0,0,244.66,207.06Z"/><path class="cls-1" d="M321.08,233.25q0,3.44.24,7.07a14.45,14.45,0,0,0,1.71,6.21H312.08V212.76a58.33,58.33,0,0,0-.3-5.91,15.41,15.41,0,0,0-1.48-5.31,10,10,0,0,0-3.32-3.82,10.2,10.2,0,0,0-5.84-1.48,9.62,9.62,0,0,0-9.39,5.42,16.84,16.84,0,0,0-1.73,5.56,43.88,43.88,0,0,0-.43,6.16v19.84c0,2.3.09,4.66.25,7.09a12.37,12.37,0,0,0,2,6.22H278.41a12.56,12.56,0,0,0,1.94-6.21c.16-2.41.25-4.77.25-7.06V174.73a63.67,63.67,0,0,0-.37-7.13,7.15,7.15,0,0,0-2.8-5.17l12.16-2v34.77c0,.49,0,.94.05,1.35s.16.61.36.61.72-.39,1.41-1.17a18.86,18.86,0,0,1,3-2.57,22.88,22.88,0,0,1,4.86-2.59,18.3,18.3,0,0,1,6.82-1.16c4.66,0,8.33,1.23,11,3.69s4,6.56,4,12.3Z"/><polygon class="cls-2" points="309.39 83.6 412.84 97.09 388.31 182.96 309.39 83.6"/><path class="cls-2" d="M416.52,97.5l76.87,102.22-88.73,42.53-11-45s-2.86-16.36,1.64-29Z"/><polygon class="cls-3" points="496.25 198.91 467.63 158.83 515.88 150.66 496.25 198.91"/><polygon class="cls-3" points="519.56 150.66 537.55 169.87 511.38 169.87 519.56 150.66"/><polygon class="cls-4" points="420.2 239.38 493.39 202.99 490.94 211.58 420.2 239.38"/><polygon class="cls-5" points="388.31 191.95 357.64 294.99 404.25 258.19 388.31 191.95"/><polygon class="cls-3" points="349.46 138.8 319.61 100.77 308.17 101.18 349.46 138.8"/><path class="cls-6" d="M393,191.59c.26,3.44.65,5.68.65,5.68l11,45,88.73-42.53-.81-1.08Z"/><rect class="cls-7" x="0.5" y="0.5" width="595.28" height="377.59"/></g></g></svg>