<svg width="171" height="59" viewBox="0 0 171 59" fill="none" xmlns="http://www.w3.org/2000/svg">
<path d="M14.4893 22.312L15.0013 19.432C15.0013 18.7493 14.6386 18.408 13.9133 18.408C13.4013 18.408 12.5906 18.7707 11.4813 19.496C10.4146 20.1787 9.53992 20.8827 8.85725 21.608C8.17458 22.2907 7.06525 24.552 5.52925 28.392C3.99325 32.1893 3.22525 35.1333 3.22525 37.224C3.22525 38.8027 3.84392 39.592 5.08125 39.592C6.65992 39.592 8.23858 38.9947 9.81725 37.8C11.3959 36.5627 12.6759 35.3253 13.6573 34.088C14.6386 32.808 15.1506 32.168 15.1933 32.168C15.4066 32.2533 15.5133 32.5093 15.5133 32.936C15.5133 33.3627 15.0013 34.28 13.9773 35.688C12.9533 37.0533 11.5239 38.376 9.68925 39.656C7.89725 40.8933 6.14792 41.512 4.44125 41.512C1.83858 41.512 0.53725 40.0187 0.53725 37.032C0.53725 34.0453 1.49725 30.4827 3.41725 26.344C5.33725 22.2053 7.00125 19.816 8.40925 19.176C9.04925 18.92 9.75325 18.6 10.5213 18.216C12.0573 17.4053 13.2733 17 14.1693 17C16.1746 17 17.1772 18.0027 17.1772 20.008C17.1772 21.2027 16.9426 22.0773 16.4733 22.632C16.0039 23.1867 15.5986 23.464 15.2573 23.464C14.7453 23.464 14.4893 23.08 14.4893 22.312ZM25.8458 8.936L25.7178 8.104C25.7178 7.93333 25.9951 7.08 26.5498 5.544C27.1044 3.96533 27.7231 2.74933 28.4058 1.896C29.0884 0.999999 30.1338 0.551998 31.5417 0.551998C32.0964 0.551998 32.4164 0.743998 32.5018 1.128C27.8511 10.5147 24.0751 20.4987 21.1738 31.08C27.5311 21.1387 32.3311 16.168 35.5738 16.168C36.4698 16.168 36.9178 16.4667 36.9178 17.064C36.9178 17.448 36.7684 17.8747 36.4698 18.344C34.1658 22.056 32.0111 26.1947 30.0058 30.76C28.0431 35.2827 27.0618 38.8027 27.0618 41.32C27.0618 41.9173 27.2324 42.216 27.5738 42.216L29.8138 41.064C30.0271 41.064 30.1338 41.256 30.1338 41.64C30.1338 42.024 29.7284 42.4933 28.9178 43.048C28.1071 43.6453 27.3178 43.944 26.5498 43.944C25.4831 43.944 24.9498 43.0907 24.9498 41.384C24.9498 39.6773 25.5471 37.16 26.7418 33.832C27.9364 30.4613 29.1311 27.4107 30.3258 24.68C31.5204 21.9067 32.1178 20.4133 32.1178 20.2C32.1178 19.9867 32.0964 19.88 32.0538 19.88C31.8831 19.88 31.4991 20.2 30.9018 20.84C28.2138 23.8693 25.9524 26.8347 24.1178 29.736C22.2831 32.5947 21.0458 34.792 20.4058 36.328C19.8084 37.864 19.1684 39.1013 18.4858 40.04C17.8458 40.936 17.0778 41.384 16.1818 41.384C15.7978 41.384 15.6058 41.192 15.6058 40.808C15.6058 40.3813 15.9471 39.3147 16.6298 37.608C17.3124 35.8587 18.1871 33.384 19.2538 30.184C20.3204 26.984 21.4511 23.4213 22.6458 19.496C23.8831 15.528 24.7151 12.8827 25.1418 11.56C25.6111 10.1947 25.8458 9.32 25.8458 8.936ZM53.0823 21.928C53.8929 22.056 54.2983 22.312 54.2983 22.696C54.2983 23.0373 53.9783 23.3573 53.3383 23.656C52.6983 23.9547 52.1223 24.104 51.6103 24.104C51.6103 29.096 50.3089 33.3627 47.7063 36.904C45.1036 40.4453 42.5223 42.216 39.9623 42.216C37.4876 42.216 36.2503 40.424 36.2503 36.84C36.2503 33.6827 37.4449 29.3733 39.8343 23.912C40.7303 21.864 41.8183 20.136 43.0983 18.728C44.4209 17.2773 45.7436 16.552 47.0663 16.552H47.5143C47.5143 15.9547 47.6849 15.4427 48.0263 15.016C48.3676 14.5893 48.8369 14.376 49.4343 14.376C50.0316 14.4187 50.5649 15.6773 51.0343 18.152C51.5036 20.584 52.1863 21.8427 53.0823 21.928ZM49.8183 23.592C49.4343 23.3787 48.9649 22.632 48.4103 21.352C47.8556 20.0293 47.4716 19.368 47.2583 19.368C45.9356 19.368 44.3996 21.3307 42.6503 25.256C40.9009 29.1387 39.8769 31.8907 39.5783 33.512C39.2796 35.1333 39.1302 36.3493 39.1302 37.16C39.1302 39.2507 39.7276 40.296 40.9223 40.296C42.6289 40.296 44.5276 38.568 46.6183 35.112C48.7516 31.6133 49.8183 27.7733 49.8183 23.592ZM65.8018 22.312L66.3138 19.432C66.3138 18.7493 65.9511 18.408 65.2258 18.408C64.7138 18.408 63.9031 18.7707 62.7938 19.496C61.7271 20.1787 60.8524 20.8827 60.1698 21.608C59.4871 22.2907 58.3778 24.552 56.8418 28.392C55.3058 32.1893 54.5378 35.1333 54.5378 37.224C54.5378 38.8027 55.1564 39.592 56.3938 39.592C57.9724 39.592 59.5511 38.9947 61.1298 37.8C62.7084 36.5627 63.9884 35.3253 64.9698 34.088C65.9511 32.808 66.4631 32.168 66.5058 32.168C66.7191 32.2533 66.8258 32.5093 66.8258 32.936C66.8258 33.3627 66.3138 34.28 65.2898 35.688C64.2658 37.0533 62.8364 38.376 61.0017 39.656C59.2098 40.8933 57.4604 41.512 55.7538 41.512C53.1511 41.512 51.8498 40.0187 51.8498 37.032C51.8498 34.0453 52.8098 30.4827 54.7298 26.344C56.6498 22.2053 58.3138 19.816 59.7218 19.176C60.3618 18.92 61.0658 18.6 61.8338 18.216C63.3698 17.4053 64.5858 17 65.4818 17C67.4871 17 68.4897 18.0027 68.4897 20.008C68.4897 21.2027 68.2551 22.0773 67.7858 22.632C67.3164 23.1867 66.9111 23.464 66.5698 23.464C66.0578 23.464 65.8018 23.08 65.8018 22.312ZM84.5823 21.928C85.3929 22.056 85.7983 22.312 85.7983 22.696C85.7983 23.0373 85.4783 23.3573 84.8383 23.656C84.1983 23.9547 83.6223 24.104 83.1103 24.104C83.1103 29.096 81.8089 33.3627 79.2063 36.904C76.6036 40.4453 74.0223 42.216 71.4623 42.216C68.9876 42.216 67.7503 40.424 67.7503 36.84C67.7503 33.6827 68.9449 29.3733 71.3343 23.912C72.2303 21.864 73.3183 20.136 74.5983 18.728C75.9209 17.2773 77.2436 16.552 78.5663 16.552H79.0143C79.0143 15.9547 79.1849 15.4427 79.5263 15.016C79.8676 14.5893 80.3369 14.376 80.9343 14.376C81.5316 14.4187 82.0649 15.6773 82.5343 18.152C83.0036 20.584 83.6863 21.8427 84.5823 21.928ZM81.3183 23.592C80.9343 23.3787 80.4649 22.632 79.9103 21.352C79.3556 20.0293 78.9716 19.368 78.7583 19.368C77.4356 19.368 75.8996 21.3307 74.1503 25.256C72.4009 29.1387 71.3769 31.8907 71.0783 33.512C70.7796 35.1333 70.6302 36.3493 70.6302 37.16C70.6302 39.2507 71.2276 40.296 72.4223 40.296C74.1289 40.296 76.0276 38.568 78.1183 35.112C80.2516 31.6133 81.3183 27.7733 81.3183 23.592ZM114.274 19.048C114.189 19.9013 113.634 21.1173 112.61 22.696C111.586 24.2747 110.797 25.064 110.242 25.064C110.072 25.064 109.986 24.9147 109.986 24.616C109.986 24.2747 110.221 23.528 110.69 22.376C111.16 21.1813 111.394 20.4133 111.394 20.072C111.394 19.432 111.01 19.112 110.242 19.112C110.114 19.112 109.41 19.2187 108.13 19.432C107.064 19.688 105.656 20.3707 103.906 21.48C102.2 22.5893 101.346 23.8053 101.346 25.128C101.346 25.5973 101.453 26.024 101.666 26.408C102.221 27.5173 103.181 28.456 104.546 29.224C105.954 29.992 107.149 30.7173 108.13 31.4C109.154 32.0827 109.666 32.9787 109.666 34.088C109.666 35.9653 108.216 37.7787 105.314 39.528C102.456 41.2347 100.002 42.088 97.9543 42.088C97.6129 42.088 97.3356 41.9387 97.1223 41.64C96.9089 41.384 96.8023 41.1067 96.8023 40.808C96.8023 40.296 97.0369 40.04 97.5063 40.04C98.9143 40.04 100.877 39.6133 103.394 38.76C105.954 37.864 107.234 36.904 107.234 35.88C107.234 34.8133 105.72 33.3627 102.69 31.528C101.538 30.8453 100.472 30.0347 99.4903 29.096C98.5516 28.1147 98.0823 27.2187 98.0823 26.408C98.0823 25.5973 98.2956 24.9147 98.7223 24.36C99.1916 23.8053 99.6396 23.3147 100.066 22.888C100.493 22.4187 100.898 22.0133 101.282 21.672C101.666 21.3307 102.093 20.9893 102.562 20.648C103.074 20.3067 103.522 20.008 103.906 19.752C104.29 19.496 104.738 19.24 105.25 18.984L106.466 18.344C107.362 17.9173 108.002 17.64 108.386 17.512C108.77 17.384 109.176 17.2347 109.602 17.064C110.584 16.68 111.373 16.488 111.97 16.488C113.506 16.488 114.274 17.3413 114.274 19.048ZM122.908 8.936L122.78 8.104C122.78 7.93333 123.058 7.08 123.612 5.544C124.167 3.96533 124.786 2.74933 125.468 1.896C126.151 0.999999 127.196 0.551998 128.604 0.551998C129.159 0.551998 129.479 0.743998 129.564 1.128C124.914 10.5147 121.138 20.4987 118.236 31.08C124.594 21.1387 129.394 16.168 132.636 16.168C133.532 16.168 133.98 16.4667 133.98 17.064C133.98 17.448 133.831 17.8747 133.532 18.344C131.228 22.056 129.074 26.1947 127.068 30.76C125.106 35.2827 124.124 38.8027 124.124 41.32C124.124 41.9173 124.295 42.216 124.636 42.216L126.876 41.064C127.09 41.064 127.196 41.256 127.196 41.64C127.196 42.024 126.791 42.4933 125.98 43.048C125.17 43.6453 124.38 43.944 123.612 43.944C122.546 43.944 122.012 43.0907 122.012 41.384C122.012 39.6773 122.61 37.16 123.804 33.832C124.999 30.4613 126.194 27.4107 127.388 24.68C128.583 21.9067 129.18 20.4133 129.18 20.2C129.18 19.9867 129.159 19.88 129.116 19.88C128.946 19.88 128.562 20.2 127.964 20.84C125.276 23.8693 123.015 26.8347 121.18 29.736C119.346 32.5947 118.108 34.792 117.468 36.328C116.871 37.864 116.231 39.1013 115.548 40.04C114.908 40.936 114.14 41.384 113.244 41.384C112.86 41.384 112.668 41.192 112.668 40.808C112.668 40.3813 113.01 39.3147 113.692 37.608C114.375 35.8587 115.25 33.384 116.316 30.184C117.383 26.984 118.514 23.4213 119.708 19.496C120.946 15.528 121.778 12.8827 122.204 11.56C122.674 10.1947 122.908 9.32 122.908 8.936ZM150.145 21.928C150.955 22.056 151.361 22.312 151.361 22.696C151.361 23.0373 151.041 23.3573 150.401 23.656C149.761 23.9547 149.185 24.104 148.673 24.104C148.673 29.096 147.371 33.3627 144.769 36.904C142.166 40.4453 139.585 42.216 137.025 42.216C134.55 42.216 133.313 40.424 133.313 36.84C133.313 33.6827 134.507 29.3733 136.897 23.912C137.793 21.864 138.881 20.136 140.161 18.728C141.483 17.2773 142.806 16.552 144.129 16.552H144.577C144.577 15.9547 144.747 15.4427 145.089 15.016C145.43 14.5893 145.899 14.376 146.497 14.376C147.094 14.4187 147.627 15.6773 148.097 18.152C148.566 20.584 149.249 21.8427 150.145 21.928ZM146.881 23.592C146.497 23.3787 146.027 22.632 145.473 21.352C144.918 20.0293 144.534 19.368 144.321 19.368C142.998 19.368 141.462 21.3307 139.713 25.256C137.963 29.1387 136.939 31.8907 136.641 33.512C136.342 35.1333 136.193 36.3493 136.193 37.16C136.193 39.2507 136.79 40.296 137.985 40.296C139.691 40.296 141.59 38.568 143.681 35.112C145.814 31.6133 146.881 27.7733 146.881 23.592ZM152.112 39.912C149.083 48.6587 147.568 53.0747 147.568 53.16C147.568 53.288 147.654 53.48 147.824 53.736C147.952 53.992 148.016 54.312 148.016 54.696C148.016 55.08 147.696 55.8267 147.056 56.936C146.416 58.088 145.755 58.664 145.072 58.664C144.56 58.664 144.304 58.1733 144.304 57.192C144.304 56.2107 144.667 54.6107 145.392 52.392C146.075 50.1733 147.099 47.272 148.464 43.688C149.787 40.1467 150.47 38.2907 150.512 38.12C150.384 37.8213 150.32 37.4587 150.32 37.032C150.32 36.0507 150.79 35.2613 151.728 34.664C154.587 25.832 156.251 20.5627 156.72 18.856C156.72 18.8133 156.486 18.7707 156.016 18.728C155.547 18.6427 155.312 18.4933 155.312 18.28C155.312 17.9387 155.654 17.6187 156.336 17.32L157.296 16.936C157.126 16.7653 157.04 16.5947 157.04 16.424C157.04 15.8267 157.446 15.1867 158.256 14.504C159.067 13.7787 159.686 13.416 160.112 13.416C160.582 13.416 160.816 13.6293 160.816 14.056C160.816 14.44 160.71 14.8453 160.496 15.272L159.792 16.808C162.822 18.9413 164.827 22.4187 165.808 27.24C166.022 27.1973 166.534 27.0267 167.344 26.728C168.198 26.4293 168.774 26.2587 169.072 26.216C169.371 26.1307 169.67 26.088 169.968 26.088C170.267 26.088 170.416 26.152 170.416 26.28C170.416 26.792 169.755 27.24 168.432 27.624C167.152 28.008 166.363 28.264 166.064 28.392C166.278 29.5013 166.384 30.7173 166.384 32.04C166.384 35.368 165.531 37.8 163.824 39.336C162.16 40.8293 160.134 41.576 157.744 41.576C155.355 41.576 153.478 41.0213 152.112 39.912ZM163.312 29.288C162.587 29.288 161.115 29.9707 158.896 31.336C156.678 32.6587 155.142 33.704 154.288 34.472L152.88 38.504C154.374 39.4853 155.824 39.976 157.232 39.976C159.408 39.976 161.008 39.272 162.032 37.864C163.099 36.4133 163.632 34.664 163.632 32.616C163.632 31.6773 163.526 30.568 163.312 29.288ZM162.992 28.264C162.395 25.192 161.499 22.76 160.304 20.968C159.878 20.2853 159.515 19.944 159.216 19.944C159.003 19.944 158.342 21.7147 157.232 25.256C156.123 28.7547 155.376 31.08 154.992 32.232C157.04 30.824 159.707 29.5013 162.992 28.264Z" fill="url(#paint0_linear)"/>
<defs>
<linearGradient id="paint0_linear" x1="-65" y1="81" x2="202.5" y2="76.5" gradientUnits="userSpaceOnUse">
<stop offset="0.0142857" stop-color="#DC3504"/>
<stop offset="0.255687" stop-color="#D87B60"/>
<stop offset="0.671875" stop-color="#E9AF58"/>
<stop offset="1" stop-opacity="0"/>
</linearGradient>
</defs>
</svg>
